<svg
        version="1.1"
        xmlns="http://www.w3.org/2000/svg"
        viewBox="0 0 512 512"
        width="24px"
        height="24px"
        className="flex"
>
    <path
            fill="#fbfbfb"
            d="M454.848,198.848c0,159.225-179.751,306.689-179.751,306.689c-10.503,8.617-27.692,8.617-38.195,0c0,0-179.751-147.464-179.751-306.689C57.153,89.027,146.18,0,256,0S454.848,89.027,454.848,198.848z"
    />
    <path
            fill="#ef3061"
            d="M454.848,198.848c0,159.225-179.751,306.689-179.751,306.689c-10.503,8.617-27.692,8.617-38.195,0c0,0-179.751-147.464-179.751-306.689C57.153,89.027,146.18,0,256,0S454.848,89.027,454.848,198.848z"
    />
    <path
            fill="#fbfbfb"
            d="M256,298.89c-55.164,0-100.041-44.879-100.041-100.041S200.838,98.806,256,98.806s100.041,44.879,100.041,100.041S311.164,298.89,256,298.89z"
    />
</svg>
